PathFileType	4	(x/y/z)	S05_M20_T05
DataRate	CameraRate	NumFrames	NumMarkers	Units	OrigDataRate	OrigDataStartFrame	OrigNumFrames
240	240	9	50	mm	240	264	527
Frame#	Time	Sternum			R.Acromium			L.Acromium			Top.Head			R.ASIS			L.ASIS			R.PSIS			L.PSIS			R.Great.Tro			L.Great.Tro			R.Iliac.Crest			L.Iliac.Crest			V.Sacral			R.Thigh.Upper.Post			R.Thigh.Lower.Ant			R.Thigh.Lower.Post			R.Thigh.Upper.Ant			R.Knee.Lat			R.Knee.Med			R.Shank.Upper.Post			R.Shank.Lower.Ant			R.Shank.Lower.Post			R.Shank.Upper.Ant			R.Ankle.Lat			R.Ankle.Med			R.Heel.Upper			R.Heel.Med			R.Heel.Lat			R.Toe.Lat			R.Toe.Med			R.Toe.Tip			L.Thigh.Upper.Post			L.Thigh.Lower.Ant			L.Thigh.Lower.Post			L.Thigh.Upper.Ant			L.Knee.Lat			L.Shank.Upper.Post			L.Shank.Lower.Ant			L.Shank.Lower.Post			L.Shank.Upper.Ant			L.Ankle.Lat			L.Ankle.Med			L.Heel.Upper			L.Heel.Med			L.Heel.Lat			L.Toe.Lat			L.Toe.Med			L.Toe.Tip			Cervical.Spine			Back			
		X1	Y1	Z1	X2	Y2	Z2	X3	Y3	Z3	X4	Y4	Z4	X5	Y5	Z5	X6	Y6	Z6	X7	Y7	Z7	X8	Y8	Z8	X9	Y9	Z9	X10	Y10	Z10	X11	Y11	Z11	X12	Y12	Z12	X13	Y13	Z13	X14	Y14	Z14	X15	Y15	Z15	X16	Y16	Z16	X17	Y17	Z17	X18	Y18	Z18	X19	Y19	Z19	X20	Y20	Z20	X21	Y21	Z21	X22	Y22	Z22	X23	Y23	Z23	X24	Y24	Z24	X25	Y25	Z25	X26	Y26	Z26	X27	Y27	Z27	X28	Y28	Z28	X29	Y29	Z29	X30	Y30	Z30	X31	Y31	Z31	X32	Y32	Z32	X33	Y33	Z33	X34	Y34	Z34	X35	Y35	Z35	X36	Y36	Z36	X37	Y37	Z37	X38	Y38	Z38	X39	Y39	Z39	X40	Y40	Z40	X41	Y41	Z41	X42	Y42	Z42	X43	Y43	Z43	X44	Y44	Z44	X45	Y45	Z45	X46	Y46	Z46	X47	Y47	Z47	X48	Y48	Z48	X49	Y49	Z49	X50	Y50	Z50	

264	1.0958	572.09	1276.6	358.65	502.26	1521.3	552.47	467.35	1575.5	229.9	480.72	1827.2	430.44	500.82	1012.6	485.96	499.61	1022.5	237.15	298.46	1038	400.49	300.26	1037.9	307.85	416.95	934.33	545.92	424.42	941.95	153.12	420.1	1098.9	526.29	410.22	1103.2	191.39	286.21	1003.6	366.83	486.32	704.84	533.31	538.25	639.13	474.17	476.01	618.47	506.22	543.69	725.17	500.56	471.09	527.54	485.37	480.55	517.6	353.93	371.1	293.7	462.72	426.83	222.2	460.28	364.85	219.35	441.95	434.84	297.6	478.95	395.83	124.66	437.62	422.69	152.38	352.49	332.6	76.753	372.92	343.45	44.519	345.15	338.04	48.313	410.38	500.05	35.793	472.87	541.38	43.222	353.89	601.81	59.841	403.03	518.48	718.14	146.31	619.69	679.84	167.69	563.67	634.64	157.9	582.47	762.51	157.32	591.28	558.57	165.35	430.15	441.61	193.28	447.1	354.78	189.95	387.87	385.26	214.68	486.46	411.92	174.16	327.7	267	227.26	375.02	251.67	306.1	260.85	260.9	294.9	259.55	233.56	327.27	240.52	239.74	268.27	361.84	122.61	184.62	408.51	113.35	294.38	453.8	85.571	230.15	427.84	1577.5	407.01	303.76	1301.7	384.34
265	1.1	576.59	1277	359.01	506.64	1522	552.44	471.83	1575.7	229.83	485.2	1827.7	429.74	505.34	1012.8	486.52	504.37	1022.9	237.71	303.09	1038.3	400.77	304.97	1038.1	308.13	421.14	934.57	546.26	429.68	942.46	153.38	424.65	1099.1	526.72	414.98	1103.5	191.8	290.87	1003.9	367.1	488.99	704.72	533.43	540.53	638.61	474.38	478.09	618.43	506.33	546.6	724.6	500.79	472.5	527.47	485.42	482.03	517.48	353.94	371.73	293.95	462.68	427.2	222.27	460.32	365.26	219.62	441.88	435.46	297.67	478.97	396.03	124.75	437.6	422.92	152.48	352.43	332.65	76.908	372.94	343.45	44.646	345.13	338.06	48.463	410.42	500.09	35.731	472.88	541.43	43.161	353.85	601.91	59.631	403.04	525.6	719.51	146.75	627.03	682.08	168.6	571.42	636.41	158.48	589.18	764.44	158.12	599.72	560.38	166.08	440.81	439.83	193.5	459.72	353.4	190.33	399.71	382.59	214.82	497.79	411.39	174.58	342.05	262.99	227.32	389.44	248.76	306.26	275.15	255.44	294.7	274.39	228.05	327	255.42	233.8	268.02	379.66	119.42	184.86	426.21	111.33	294.81	472.31	84.531	230.74	432.3	1577.9	406.93	308.29	1302	384.67
266	1.1042	581.09	1277.3	359.36	511.03	1522.6	552.41	476.32	1575.9	229.75	489.68	1828.1	429.02	509.86	1013	487.07	509.14	1023.3	238.26	307.71	1038.6	401.04	309.68	1038.3	308.4	425.33	934.79	546.59	434.91	942.94	153.64	429.17	1099.4	527.13	419.75	1103.8	192.2	295.53	1004.1	367.36	491.66	704.58	533.57	542.82	638.1	474.61	480.17	618.39	506.45	549.51	724.01	501.04	473.92	527.39	485.48	483.53	517.35	353.96	372.36	294.2	462.64	427.56	222.35	460.36	365.68	219.89	441.81	436.08	297.73	478.99	396.22	124.85	437.59	423.14	152.58	352.38	332.71	77.065	372.95	343.46	44.776	345.12	338.08	48.615	410.47	500.13	35.664	472.9	541.48	43.106	353.81	602	59.424	403.05	532.6	720.81	147.21	634.25	684.23	169.5	579.04	638.1	159.09	595.79	766.28	158.92	608.04	562.14	166.82	451.47	437.96	193.72	472.37	352	190.71	411.59	379.84	214.96	509.1	410.82	175	356.52	258.95	227.36	404.01	245.82	306.39	289.61	249.89	294.5	289.42	222.47	326.74	270.52	227.79	267.77	397.64	116.29	185.09	444.06	109.37	295.2	490.96	83.592	231.29	436.78	1578.3	406.82	312.82	1302.3	384.97
267	1.1083	585.59	1277.6	359.69	515.41	1523.2	552.37	480.84	1576	229.65	494.16	1828.4	428.29	514.39	1013.2	487.61	513.91	1023.6	238.8	312.34	1038.8	401.3	314.39	1038.5	308.66	429.5	935	546.93	440.12	943.39	153.91	433.68	1099.6	527.54	424.52	1104.1	192.59	300.19	1004.4	367.61	494.33	704.45	533.71	545.11	637.58	474.86	482.27	618.35	506.58	552.43	723.43	501.31	475.35	527.31	485.55	485.05	517.22	353.99	373.01	294.45	462.61	427.91	222.43	460.4	366.11	220.17	441.75	436.7	297.8	479.02	396.42	124.95	437.58	423.37	152.69	352.34	332.78	77.223	372.97	343.48	44.908	345.12	338.1	48.768	410.5	500.16	35.592	472.91	541.52	43.056	353.77	602.1	59.221	403.06	539.49	722.04	147.69	641.34	686.3	170.4	586.53	639.72	159.71	602.3	768.04	159.71	616.22	563.83	167.56	462.14	436.02	193.92	485.04	350.57	191.07	423.52	377.02	215.09	520.4	410.22	175.41	371.11	254.86	227.39	418.72	242.84	306.52	304.24	244.26	294.3	304.63	216.82	326.46	285.79	221.71	267.52	415.77	113.22	185.29	462.07	107.48	295.57	509.72	82.767	231.81	441.26	1578.6	406.7	317.35	1302.6	385.26
268	1.1125	590.1	1277.9	360.02	519.81	1523.7	552.31	485.36	1576.1	229.54	498.63	1828.7	427.55	518.92	1013.3	488.15	518.69	1023.9	239.34	316.96	1039	401.55	319.1	1038.7	308.92	433.66	935.18	547.26	445.31	943.82	154.18	438.17	1099.8	527.94	429.3	1104.3	192.97	304.84	1004.6	367.86	496.99	704.3	533.86	547.42	637.07	475.13	484.38	618.3	506.72	555.34	722.83	501.6	476.79	527.23	485.64	486.58	517.1	354.03	373.67	294.7	462.58	428.25	222.51	460.45	366.54	220.44	441.69	437.32	297.86	479.06	396.63	125.05	437.58	423.59	152.79	352.31	332.85	77.381	372.98	343.52	45.04	345.12	338.13	48.922	410.54	500.2	35.516	472.92	541.54	43.009	353.74	602.2	59.023	403.08	546.27	723.21	148.19	648.31	688.27	171.29	593.89	641.27	160.35	608.7	769.71	160.49	624.28	565.47	168.32	472.8	434	194.12	497.72	349.11	191.43	435.49	374.15	215.22	531.68	409.57	175.81	385.82	250.76	227.41	433.58	239.85	306.63	319.04	238.58	294.11	320.02	211.13	326.19	301.26	215.58	267.27	434.05	110.24	185.45	480.21	105.66	295.89	528.6	82.07	232.28	445.76	1578.9	406.57	321.88	1302.8	385.53
269	1.1167	594.61	1278.1	360.35	524.21	1524.2	552.24	489.91	1576.1	229.41	503.1	1829	426.79	523.44	1013.5	488.69	523.47	1024.1	239.87	321.58	1039.2	401.8	323.81	1038.8	309.17	437.8	935.35	547.59	450.48	944.2	154.47	442.64	1100	528.33	434.09	1104.5	193.34	309.49	1004.7	368.1	499.65	704.15	534.01	549.74	636.56	475.42	486.5	618.25	506.86	558.25	722.24	501.9	478.25	527.14	485.73	488.13	516.97	354.08	374.34	294.96	462.57	428.59	222.59	460.51	366.98	220.73	441.64	437.95	297.93	479.11	396.83	125.16	437.58	423.83	152.9	352.28	332.92	77.538	372.99	343.56	45.171	345.13	338.16	49.078	410.57	500.25	35.436	472.93	541.56	42.963	353.71	602.29	58.828	403.1	552.94	724.3	148.7	655.15	690.15	172.18	601.12	642.73	161.01	614.99	771.28	161.27	632.22	567.03	169.07	483.47	431.91	194.31	510.42	347.64	191.77	447.51	371.21	215.35	542.93	408.89	176.21	400.64	246.65	227.41	448.59	236.86	306.74	334	232.84	293.93	335.6	205.39	325.92	316.91	209.41	267.03	452.47	107.35	185.59	498.49	103.94	296.18	547.57	81.51	232.7	450.27	1579.1	406.42	326.42	1303	385.78
270	1.1208	599.13	1278.3	360.66	528.62	1524.7	552.16	494.47	1576.1	229.27	507.57	1829.3	426.01	527.97	1013.5	489.22	528.26	1024.3	240.39	326.2	1039.4	402.03	328.52	1038.9	309.41	441.94	935.5	547.92	455.62	944.56	154.76	447.1	1100.1	528.71	438.89	1104.6	193.7	314.14	1004.9	368.33	502.32	703.99	534.18	552.07	636.06	475.73	488.63	618.2	507.01	561.16	721.64	502.22	479.72	527.05	485.83	489.7	516.83	354.15	375.02	295.22	462.55	428.93	222.67	460.56	367.44	221.01	441.6	438.58	297.98	479.16	397.04	125.27	437.59	424.07	153	352.26	333	77.693	373	343.61	45.3	345.15	338.2	49.234	410.59	500.29	35.354	472.94	541.56	42.918	353.69	602.39	58.638	403.12	559.5	725.32	149.23	661.87	691.93	173.06	608.22	644.11	161.69	621.19	772.76	162.04	640.02	568.52	169.84	494.14	429.75	194.5	523.13	346.16	192.11	459.56	368.23	215.48	554.16	408.18	176.6	415.57	242.53	227.4	463.73	233.86	306.84	349.14	227.07	293.75	351.36	199.63	325.65	332.74	203.21	266.79	471.02	104.58	185.7	516.88	102.31	296.43	566.63	81.099	233.07	454.79	1579.3	406.25	330.95	1303.1	386.02
271	1.125	603.65	1278.4	360.97	533.03	1525.1	552.06	499.04	1576.1	229.12	512.03	1829.4	425.22	532.48	1013.6	489.75	533.07	1024.5	240.91	330.82	1039.5	402.26	333.24	1039	309.64	446.05	935.62	548.25	460.75	944.88	155.06	451.54	1100.2	529.08	443.69	1104.7	194.06	318.78	1005	368.55	504.98	703.83	534.35	554.42	635.56	476.06	490.77	618.14	507.17	564.08	721.03	502.56	481.21	526.95	485.94	491.29	516.7	354.21	375.72	295.48	462.55	429.28	222.75	460.62	367.91	221.3	441.56	439.23	298.04	479.22	397.25	125.38	437.6	424.33	153.11	352.25	333.08	77.846	373.01	343.68	45.426	345.17	338.24	49.391	410.61	500.33	35.27	472.95	541.56	42.873	353.67	602.48	58.451	403.15	565.95	726.25	149.77	668.48	693.6	173.93	615.2	645.41	162.38	627.29	774.14	162.8	647.7	569.93	170.62	504.81	427.52	194.68	535.84	344.67	192.44	471.66	365.2	215.61	565.37	407.43	176.99	430.61	238.42	227.38	479	230.88	306.93	364.45	221.26	293.58	367.31	193.85	325.4	348.76	197	266.56	489.68	101.92	185.78	535.4	100.8	296.64	585.77	80.846	233.39	459.32	1579.5	406.07	335.5	1303.2	386.23
272	1.1292	608.17	1278.5	361.27	537.45	1525.5	551.96	503.64	1576	228.95	516.5	1829.6	424.41	536.98	1013.6	490.27	537.89	1024.6	241.42	335.44	1039.7	402.47	337.96	1039.1	309.86	450.16	935.73	548.57	465.84	945.16	155.38	455.97	1100.3	529.44	448.51	1104.8	194.4	323.42	1005.2	368.76	507.64	703.66	534.53	556.79	635.06	476.41	492.93	618.08	507.33	566.99	720.42	502.92	482.72	526.84	486.05	492.89	516.56	354.28	376.44	295.74	462.55	429.64	222.83	460.68	368.4	221.58	441.54	439.88	298.09	479.29	397.47	125.49	437.61	424.61	153.22	352.25	333.17	77.996	373.01	343.76	45.548	345.21	338.28	49.548	410.62	500.38	35.185	472.96	541.54	42.828	353.66	602.57	58.268	403.18	572.3	727.11	150.32	674.97	695.16	174.79	622.05	646.61	163.08	633.29	775.42	163.55	655.24	571.26	171.4	515.47	425.23	194.86	548.55	343.18	192.77	483.79	362.14	215.75	576.54	406.65	177.36	445.77	234.32	227.35	494.38	227.92	307.03	379.94	215.43	293.41	383.45	188.07	325.15	364.96	190.78	266.34	508.46	99.388	185.82	554.01	99.401	296.8	604.98	80.761	233.65	463.86	1579.7	405.87	340.04	1303.3	386.42
